<svg xmlns="http://www.w3.org/2000/svg" width="23.969" height="24" viewBox="0 0 23.969 24">
  <defs>
    <style>
      .cls-1 {
        fill: #333c4c;
        fill-rule: evenodd;
      }
    </style>
  </defs>
  <path id="gear" class="cls-1" d="M24.154,13.487a1.463,1.463,0,0,1-1.448,1.3c-0.029,0-.058,0-0.087,0l-0.107,0a1.634,1.634,0,0,0-1.485.989,1.617,1.617,0,0,0,.41,1.821A1.471,1.471,0,0,1,21.6,19.6a11.957,11.957,0,0,1-1.939,1.918,1.47,1.47,0,0,1-1.989-.164,1.728,1.728,0,0,0-1.251-.52,1.5,1.5,0,0,0-.561.1,1.623,1.623,0,0,0-1,1.559,1.477,1.477,0,0,1-1.306,1.513,12.041,12.041,0,0,1-1.315.073A11.9,11.9,0,0,1,10.857,24a1.467,1.467,0,0,1-1.295-1.545,1.62,1.62,0,0,0-.987-1.584A1.485,1.485,0,0,0,8,20.765a1.719,1.719,0,0,0-1.248.52,1.467,1.467,0,0,1-2.009.159,11.869,11.869,0,0,1-1.9-1.921,1.473,1.473,0,0,1,.161-1.989,1.627,1.627,0,0,0,.411-1.807,1.6,1.6,0,0,0-1.448-1H1.917a1.578,1.578,0,0,1-1.574-1.3A11.957,11.957,0,0,1,.349,10.7a1.454,1.454,0,0,1,1.5-1.3,1.728,1.728,0,0,0,1.63-.985,1.619,1.619,0,0,0-.409-1.822,1.472,1.472,0,0,1-.158-2.008A11.889,11.889,0,0,1,4.846,2.665a1.469,1.469,0,0,1,1.992.167,1.726,1.726,0,0,0,1.25.517,1.492,1.492,0,0,0,.558-0.1,1.628,1.628,0,0,0,1-1.561A1.476,1.476,0,0,1,10.949.173a12,12,0,0,1,2.7.007,1.469,1.469,0,0,1,1.3,1.545,1.622,1.622,0,0,0,.985,1.586,1.5,1.5,0,0,0,.571.107A1.716,1.716,0,0,0,17.745,2.9a1.469,1.469,0,0,1,2.008-.162,11.837,11.837,0,0,1,1.9,1.919,1.475,1.475,0,0,1-.162,1.993A1.611,1.611,0,0,0,22.6,9.456a1.57,1.57,0,0,1,1.559,1.3A11.955,11.955,0,0,1,24.154,13.487Zm-1.972-2.322a3.213,3.213,0,0,1-2.237-5.443,9.877,9.877,0,0,0-1.3-1.314A3.343,3.343,0,0,1,16.36,5.3a3.074,3.074,0,0,1-1.191-.232A3.23,3.23,0,0,1,13.2,2.126a9.995,9.995,0,0,0-1.846,0,3.01,3.01,0,0,1-2.063,2.7,2.968,2.968,0,0,1-1.1.417,3.352,3.352,0,0,1-2.286-.891A9.911,9.911,0,0,0,4.575,5.661a3.224,3.224,0,0,1,.657,3.482,3.3,3.3,0,0,1-2.94,1.965,10.023,10.023,0,0,0,0,1.878,3.217,3.217,0,0,1,2.9,1.994,3.237,3.237,0,0,1-.66,3.451,9.917,9.917,0,0,0,1.3,1.315,3.346,3.346,0,0,1,2.286-.9,3.064,3.064,0,0,1,1.191.234,3.226,3.226,0,0,1,1.972,2.943,9.965,9.965,0,0,0,1.846,0,3.232,3.232,0,0,1,1.992-2.891,3.072,3.072,0,0,1,1.169-.224,3.355,3.355,0,0,1,2.285.892A9.97,9.97,0,0,0,19.9,18.492a3.223,3.223,0,0,1-.66-3.481,3.256,3.256,0,0,1,2.942-1.973A9.951,9.951,0,0,0,22.183,11.165Zm-9.929,4.923a4,4,0,1,1,3.986-4A4,4,0,0,1,12.254,16.088Zm0-5.987a2,2,0,1,0,2,2A2,2,0,0,0,12.253,10.1Z" transform="translate(-0.281 -0.094)"/>
</svg>
